<?xml version="1.0" encoding="utf-8"?>
<svg xmlns="http://www.w3.org/2000/svg" viewBox="106.3889 39.9939 224.017 58.2444" width="224.017px" height="58.2444px">
  <g id="g670" transform="matrix(0.5883277514901684, 0, 0, -0.5883275906434146, 25.598534200628045, 2198.954366617489)">
    <g id="g676" transform="matrix(1,0,0,1,357.631,3620.05)">
      <path id="path678" d="M0,0L0,-5.399L-16.526,-5.399L-16.526,16.609L0,16.609L0,11.21L-10.538,11.21L-10.538,8.275L-2.025,8.275L-2.025,2.935L-10.538,2.935L-10.538,0L0,0ZM-28.5,11.21L-32.522,11.21L-32.522,6.016L-28.5,6.016C-27.15,6.016 -26.27,7.512 -26.27,8.598C-26.27,9.684 -27.15,11.21 -28.5,11.21M-23.98,1.996L-20.252,-5.399L-26.974,-5.399L-29.704,0.587L-32.522,0.587L-32.522,-5.399L-38.51,-5.399L-38.51,16.609L-28.5,16.609C-23.862,16.609 -20.193,13.206 -20.193,8.598C-20.193,5.634 -21.866,3.463 -23.98,1.996M-42.764,2.759C-42.764,-2.552 -46.668,-5.898 -52.216,-5.898C-57.705,-5.898 -61.609,-2.552 -61.609,2.759L-61.609,16.609L-55.503,16.609L-55.503,2.759C-55.503,0.939 -54.359,-0.322 -52.216,-0.322C-50.043,-0.322 -48.898,0.939 -48.898,2.759L-48.898,16.609L-42.764,16.609L-42.764,2.759ZM-70.56,11.21L-70.56,-5.399L-76.548,-5.399L-76.548,11.21L-82.566,11.21L-82.566,16.609L-64.542,16.609L-64.542,11.21L-70.56,11.21ZM-81.067,-5.399L-97.065,-5.399L-97.065,16.609L-91.077,16.609L-91.077,0.029L-81.067,0.029L-81.067,-5.399ZM-101.319,2.759C-101.319,-2.552 -105.223,-5.898 -110.771,-5.898C-116.26,-5.898 -120.165,-2.552 -120.165,2.759L-120.165,16.609L-114.059,16.609L-114.059,2.759C-114.059,0.939 -112.914,-0.322 -110.771,-0.322C-108.599,-0.322 -107.454,0.939 -107.454,2.759L-107.454,16.609L-101.319,16.609L-101.319,2.759ZM-128.234,8.422C-129.203,10.007 -130.964,11.122 -132.96,11.122C-136.013,11.122 -138.479,8.628 -138.479,5.605C-138.479,2.583 -136.013,0.089 -132.96,0.089C-130.964,0.089 -129.203,1.174 -128.234,2.788L-123.097,-0.293C-125.093,-3.638 -128.762,-5.898 -132.96,-5.898C-139.535,-5.898 -144.76,-0.938 -144.76,5.605C-144.76,12.149 -139.535,17.108 -132.96,17.108C-128.762,17.108 -125.093,14.849 -123.097,11.503L-128.234,8.422ZM-153.683,16.609L-147.695,16.609L-147.695,-5.399L-153.683,-5.399L-153.683,16.609ZM-165.07,11.21L-169.091,11.21L-169.091,6.016L-165.07,6.016C-163.719,6.016 -162.839,7.512 -162.839,8.598C-162.839,9.684 -163.719,11.21 -165.07,11.21M-160.549,1.996L-156.821,-5.399L-163.543,-5.399L-166.273,0.587L-169.091,0.587L-169.091,-5.399L-175.08,-5.399L-175.08,16.609L-165.07,16.609C-160.432,16.609 -156.762,13.206 -156.762,8.598C-156.762,5.634 -158.436,3.463 -160.549,1.996M-187.375,-5.898C-193.922,-5.898 -199.176,-0.938 -199.176,5.605C-199.176,12.149 -193.922,17.108 -187.375,17.108C-184.206,17.108 -181.299,15.788 -179.215,13.704L-183.325,9.625C-184.323,10.623 -185.556,11.415 -187.375,11.415C-190.693,11.415 -192.865,8.628 -192.865,5.605C-192.865,2.583 -190.693,-0.175 -187.375,-0.175C-185.879,-0.175 -185.027,0.499 -184.118,1.174L-184.118,2.964L-187.375,2.964L-187.375,8.07L-178.628,8.07L-178.628,-1.878C-180.742,-4.343 -183.882,-5.898 -187.375,-5.898M-209.242,6.603L-209.36,6.603L-211.121,2.318L-207.481,2.318L-209.242,6.603ZM-198.293,-5.399L-204.751,-5.399L-205.749,-2.904L-212.853,-2.904L-213.851,-5.399L-220.309,-5.399L-210.71,16.609L-207.863,16.609L-198.293,-5.399ZM128.642,-5.359L134.628,-5.359L134.628,16.64L128.642,16.64L128.642,-5.359ZM117.199,6.022L113.385,6.022L113.385,11.243L117.199,11.243C118.549,11.243 119.429,9.717 119.429,8.632C119.429,7.547 118.549,6.022 117.199,6.022M125.708,8.632C125.708,13.237 122.041,16.64 117.405,16.64L107.399,16.64L107.399,-5.359L113.385,-5.359L113.385,0.625L116.201,0.625L118.93,-5.359L125.649,-5.359L121.923,2.033C124.036,3.499 125.708,5.67 125.708,8.632M92.406,-0.167C89.208,-0.167 86.597,2.443 86.597,5.641C86.597,8.838 89.208,11.448 92.406,11.448C95.604,11.448 98.216,8.838 98.216,5.641C98.216,2.443 95.604,-0.167 92.406,-0.167M92.406,17.139C85.863,17.139 80.2,12.181 80.2,5.641C80.2,-0.9 85.863,-5.857 92.406,-5.857C98.95,-5.857 104.613,-0.9 104.613,5.641C104.613,12.181 98.95,17.139 92.406,17.139M35.162,-5.359L29.177,-5.359L29.177,16.64L35.162,16.64L35.162,-5.359ZM81.049,49.607L-12.607,49.607L2.991,16.632L9.631,16.632L15.208,4.629L20.786,16.632L27.479,16.632L17.439,-5.377L13.401,-5.377L34.221,-49.393L55.408,-4.602C53.696,-5.423 51.77,-5.857 49.745,-5.857C43.524,-5.857 37.949,-0.9 37.949,5.641C37.949,12.181 43.524,17.139 49.745,17.139C53.94,17.139 57.726,15.291 60.014,11.947L55.026,8.896C53.911,10.421 52.327,11.448 50.038,11.448C46.986,11.448 44.346,8.662 44.346,5.641C44.346,2.62 46.986,-0.167 50.038,-0.167C52.327,-0.167 53.911,0.859 55.026,2.385L57.885,0.636L62.902,11.243L67.202,11.243L67.202,-5.359L73.188,-5.359L73.188,11.243L79.203,11.243L79.203,16.64L65.455,16.64L81.049,49.607ZM147.103,2.001L148.864,6.756L149.157,6.756L150.919,2.001L147.103,2.001ZM147.749,16.646L137.561,-5.365L144.078,-5.365L145.193,-2.841L152.828,-2.841L153.943,-5.365L160.46,-5.365L150.273,16.646L147.749,16.646Z" style="fill:#00573f;fill-rule:nonzero;"/>
    </g>
  </g>
</svg>