<?xml version="1.0" encoding="utf-8"?>
<svg xmlns="http://www.w3.org/2000/svg" viewBox="137.3761 246.6732 145.3063 59.4179" width="145.306px" height="59.4179px">
  <g transform="matrix(0.8084407351758252, 0, 0, 0.80844051415095, 199.78333753086955, 279.2441189383148)">
    <path d="M0,-0.01C0,-2.285 1.681,-3.801 3.769,-3.801C5.065,-3.801 5.966,-3.229 6.615,-2.428L5.889,-1.977C5.428,-2.57 4.647,-2.988 3.769,-2.988C2.164,-2.988 0.945,-1.757 0.945,-0.01C0.945,1.725 2.164,2.978 3.769,2.978C4.647,2.978 5.373,2.549 5.735,2.187L5.735,0.693L3.219,0.693L3.219,-0.12L6.648,-0.12L6.648,2.527C5.966,3.285 4.966,3.791 3.769,3.791C1.681,3.791 0,2.264 0,-0.01" style="fill:var(--grdc1); fill-rule:nonzero;"/>
  </g>
  <g transform="matrix(0.8084407351758252, 0, 0, 0.80844051415095, 210.2498217206684, 280.40850684302586)">
    <path d="M0,-2.912C0,-3.736 -0.593,-4.307 -1.461,-4.307L-3.384,-4.307L-3.384,-1.505L-1.461,-1.505C-0.593,-1.505 0,-2.088 0,-2.912M-0.055,2.208L-1.922,-0.704L-3.384,-0.704L-3.384,2.208L-4.296,2.208L-4.296,-5.12L-1.352,-5.12C-0.011,-5.12 0.945,-4.263 0.945,-2.912C0.945,-1.593 0.044,-0.868 -0.956,-0.781L1.022,2.208L-0.055,2.208Z" style="fill:var(--grdc1); fill-rule:nonzero;"/>
  </g>
  <g transform="matrix(0.8084407351758252, 0, 0, 0.80844051415095, 214.9313712056373, 281.4293032983097)">
    <path d="M0,-5.438L-1.56,-1.494L1.549,-1.494L0,-5.438ZM2.472,0.945L1.824,-0.681L-1.824,-0.681L-2.473,0.945L-3.516,0.945L-0.572,-6.383L0.56,-6.383L3.516,0.945L2.472,0.945Z" style="fill:var(--grdc1); fill-rule:nonzero;"/>
  </g>
  <g transform="matrix(0.8084407351758252, 0, 0, 0.80844051415095, -366.31748323079313, 227.05614230669977)">
    <rect x="723.922" y="60.874" width="0.912" height="7.328" style="fill:var(--grdc1); fill-rule:nonzero;"/>
  </g>
  <g transform="matrix(0.8084407351758252, 0, 0, 0.80844051415095, 225.63616726314822, 276.2691084461458)">
    <path d="M0,7.328L-4.274,1.483L-4.274,7.328L-5.186,7.328L-5.186,0L-4.252,0L-0.034,5.724L-0.034,0L0.879,0L0.879,7.328L0,7.328Z" style="fill:var(--grdc1); fill-rule:nonzero;"/>
  </g>
  <g transform="matrix(0.8084407351758252, 0, 0, 0.80844051415095, 227.7213006790939, 277.12147075074785)">
    <path d="M0,5.241L0.538,4.548C1.021,5.087 1.813,5.592 2.845,5.592C4.153,5.592 4.57,4.89 4.57,4.329C4.57,2.439 0.231,3.483 0.231,0.868C0.231,-0.34 1.308,-1.164 2.747,-1.164C3.867,-1.164 4.735,-0.791 5.351,-0.142L4.801,0.527C4.252,-0.077 3.482,-0.351 2.681,-0.351C1.801,-0.351 1.175,0.121 1.175,0.813C1.175,2.461 5.515,1.516 5.515,4.252C5.515,5.318 4.79,6.405 2.812,6.405C1.538,6.405 0.604,5.922 0,5.241" style="fill:var(--grdc1); fill-rule:nonzero;"/>
  </g>
  <g transform="matrix(0.8084407351758252, 0, 0, 0.80844051415095, 239.71873186144975, 280.40850684302586)">
    <path d="M0,-2.912C0,-3.736 -0.593,-4.307 -1.461,-4.307L-3.384,-4.307L-3.384,-1.505L-1.461,-1.505C-0.593,-1.505 0,-2.088 0,-2.912M-0.055,2.208L-1.922,-0.704L-3.384,-0.704L-3.384,2.208L-4.296,2.208L-4.296,-5.12L-1.352,-5.12C-0.011,-5.12 0.945,-4.263 0.945,-2.912C0.945,-1.593 0.044,-0.868 -0.956,-0.781L1.022,2.208L-0.055,2.208Z" style="fill:var(--grdc1); fill-rule:nonzero;"/>
  </g>
  <g transform="matrix(0.8084407351758252, 0, 0, 0.80844051415095, 241.9894762504965, 276.2691084461458)">
    <path d="M0,7.328L0,0L4.801,0L4.801,0.813L0.912,0.813L0.912,3.175L4.724,3.175L4.724,3.988L0.912,3.988L0.912,6.515L4.801,6.515L4.801,7.328L0,7.328Z" style="fill:var(--grdc1); fill-rule:nonzero;"/>
  </g>
  <g transform="matrix(0.8084407351758252, 0, 0, 0.80844051415095, 247.02876073133277, 277.12147075074785)">
    <path d="M0,5.241L0.538,4.548C1.021,5.087 1.813,5.592 2.845,5.592C4.153,5.592 4.57,4.89 4.57,4.329C4.57,2.439 0.231,3.483 0.231,0.868C0.231,-0.34 1.308,-1.164 2.746,-1.164C3.867,-1.164 4.735,-0.791 5.351,-0.142L4.801,0.527C4.252,-0.077 3.482,-0.351 2.681,-0.351C1.801,-0.351 1.175,0.121 1.175,0.813C1.175,2.461 5.515,1.516 5.515,4.252C5.515,5.318 4.79,6.405 2.812,6.405C1.538,6.405 0.604,5.922 0,5.241" style="fill:var(--grdc1); fill-rule:nonzero;"/>
  </g>
  <g transform="matrix(0.8084407351758252, 0, 0, 0.80844051415095, 252.9514150120364, 276.2691084461458)">
    <path d="M0,7.328L0,0L4.801,0L4.801,0.813L0.912,0.813L0.912,3.175L4.724,3.175L4.724,3.988L0.912,3.988L0.912,6.515L4.801,6.515L4.801,7.328L0,7.328Z" style="fill:var(--grdc1); fill-rule:nonzero;"/>
  </g>
  <g transform="matrix(0.8084407351758252, 0, 0, 0.80844051415095, 260.7232319719752, 281.4293032983097)">
    <path d="M0,-5.438L-1.56,-1.494L1.549,-1.494L0,-5.438ZM2.472,0.945L1.824,-0.681L-1.824,-0.681L-2.473,0.945L-3.516,0.945L-0.572,-6.383L0.56,-6.383L3.516,0.945L2.472,0.945Z" style="fill:var(--grdc1); fill-rule:nonzero;"/>
  </g>
  <g transform="matrix(0.8084407351758252, 0, 0, 0.80844051415095, 268.1956895286288, 280.40850684302586)">
    <path d="M0,-2.912C0,-3.736 -0.593,-4.307 -1.461,-4.307L-3.384,-4.307L-3.384,-1.505L-1.461,-1.505C-0.593,-1.505 0,-2.088 0,-2.912M-0.055,2.208L-1.922,-0.704L-3.384,-0.704L-3.384,2.208L-4.296,2.208L-4.296,-5.12L-1.352,-5.12C-0.011,-5.12 0.945,-4.263 0.945,-2.912C0.945,-1.593 0.044,-0.868 -0.956,-0.781L1.022,2.208L-0.055,2.208Z" style="fill:var(--grdc1); fill-rule:nonzero;"/>
  </g>
  <g transform="matrix(0.8084407351758252, 0, 0, 0.80844051415095, 270.14274710963525, 279.23511385672055)">
    <path d="M0,0.001C0,-2.251 1.659,-3.79 3.769,-3.79C5.065,-3.79 5.966,-3.163 6.548,-2.34L5.779,-1.911C5.362,-2.527 4.604,-2.977 3.769,-2.977C2.165,-2.977 0.945,-1.746 0.945,0.001C0.945,1.736 2.165,2.978 3.769,2.978C4.604,2.978 5.362,2.538 5.779,1.913L6.559,2.341C5.944,3.176 5.065,3.791 3.769,3.791C1.659,3.791 0,2.253 0,0.001" style="fill:var(--grdc1); fill-rule:nonzero;"/>
  </g>
  <g transform="matrix(0.8084407351758252, 0, 0, 0.80844051415095, 280.9354119209326, 276.2691084461458)">
    <path d="M0,7.328L0,3.966L-4.285,3.966L-4.285,7.328L-5.197,7.328L-5.197,0L-4.285,0L-4.285,3.153L0,3.153L0,0L0.912,0L0.912,7.328L0,7.328Z" style="fill:var(--grdc1); fill-rule:nonzero;"/>
  </g>
  <g transform="matrix(0.8084407351758252, 0, 0, 0.80844051415095, 201.55076420165918, 288.60608295383713)">
    <path d="M0,-1.615C0.78,-1.999 1.45,-2.394 1.45,-3.12C1.45,-3.659 1.077,-3.944 0.583,-3.944C0.022,-3.944 -0.439,-3.505 -0.439,-2.878C-0.439,-2.493 -0.253,-2.043 0,-1.615M1.549,1.571C1.131,1.132 0.747,0.714 0.539,0.462C0.231,0.11 -0.088,-0.285 -0.384,-0.703C-0.989,-0.329 -1.461,0.122 -1.461,0.879C-1.461,1.791 -0.758,2.296 0.012,2.296C0.616,2.296 1.131,1.989 1.549,1.571M2.846,2.846C2.626,2.659 2.341,2.385 2.044,2.077C1.505,2.616 0.824,2.977 -0.065,2.977C-1.33,2.977 -2.351,2.296 -2.351,0.934C-2.351,-0.208 -1.582,-0.791 -0.736,-1.242C-1.065,-1.802 -1.296,-2.373 -1.296,-2.889C-1.296,-3.867 -0.483,-4.592 0.549,-4.592C1.505,-4.592 2.208,-4.076 2.208,-3.153C2.208,-2.054 1.275,-1.571 0.341,-1.087C0.638,-0.681 0.945,-0.318 1.187,-0.044C1.483,0.308 1.769,0.627 2.055,0.934C2.461,0.33 2.714,-0.329 2.846,-0.736L3.56,-0.428C3.307,0.154 3,0.846 2.56,1.462C2.988,1.912 3.45,2.351 3.988,2.846L2.846,2.846Z" style="fill:var(--grdc1); fill-rule:nonzero;"/>
  </g>
  <g transform="matrix(0.8084407351758252, 0, 0, 0.80844051415095, 212.980165751226, 287.9399995571559)">
    <path d="M0,0.011C0,-1.571 -1,-2.846 -2.812,-2.846L-4.406,-2.846L-4.406,2.857L-2.812,2.857C-1.032,2.857 0,1.582 0,0.011M-5.318,3.67L-5.318,-3.659L-2.812,-3.659C-0.539,-3.659 0.945,-2.065 0.945,0.011C0.945,2.099 -0.539,3.67 -2.812,3.67L-5.318,3.67Z" style="fill:var(--grdc1); fill-rule:nonzero;"/>
  </g>
  <g transform="matrix(0.8084407351758252, 0, 0, 0.80844051415095, 215.23757587239433, 284.98183502476206)">
    <path d="M0,7.329L0,0L4.801,0L4.801,0.813L0.912,0.813L0.912,3.175L4.724,3.175L4.724,3.989L0.912,3.989L0.912,6.516L4.801,6.516L4.801,7.329L0,7.329Z" style="fill:var(--grdc1); fill-rule:nonzero;"/>
  </g>
  <g transform="matrix(0.8084407351758252, 0, 0, 0.80844051415095, 222.54742661274466, 284.98183502476206)">
    <path d="M0,7.329L-2.944,0L-1.9,0L0.572,6.329L3.043,0L4.087,0L1.131,7.329L0,7.329Z" style="fill:var(--grdc1); fill-rule:nonzero;"/>
  </g>
  <g transform="matrix(0.8084407351758252, 0, 0, 0.80844051415095, 227.00885888941568, 284.98183502476206)">
    <path d="M0,7.329L0,0L4.801,0L4.801,0.813L0.912,0.813L0.912,3.175L4.724,3.175L4.724,3.989L0.912,3.989L0.912,6.516L4.801,6.516L4.801,7.329L0,7.329Z" style="fill:var(--grdc1); fill-rule:nonzero;"/>
  </g>
  <g transform="matrix(0.8084407351758252, 0, 0, 0.80844051415095, 232.40636186056517, 284.98183502476206)">
    <path d="M0,7.329L0,0L0.912,0L0.912,6.516L4.318,6.516L4.318,7.329L0,7.329Z" style="fill:var(--grdc1); fill-rule:nonzero;"/>
  </g>
  <g transform="matrix(0.8084407351758252, 0, 0, 0.80844051415095, 241.78149729750012, 287.9498412111484)">
    <path d="M0,-0.001C0,-1.715 -1.055,-2.978 -2.692,-2.978C-4.339,-2.978 -5.383,-1.715 -5.383,-0.001C-5.383,1.702 -4.339,2.977 -2.692,2.977C-1.055,2.977 0,1.702 0,-0.001M-6.328,-0.001C-6.328,-2.165 -4.868,-3.791 -2.692,-3.791C-0.527,-3.791 0.945,-2.165 0.945,-0.001C0.945,2.163 -0.527,3.79 -2.692,3.79C-4.868,3.79 -6.328,2.163 -6.328,-0.001" style="fill:var(--grdc1); fill-rule:nonzero;"/>
  </g>
  <g transform="matrix(0.8084407351758252, 0, 0, 0.80844051415095, 247.53373250953663, 289.12190140720725)">
    <path d="M0,-2.912C0,-3.736 -0.593,-4.308 -1.461,-4.308L-3.384,-4.308L-3.384,-1.516L-1.461,-1.516C-0.593,-1.516 0,-2.088 0,-2.912M-4.296,2.208L-4.296,-5.12L-1.352,-5.12C0.121,-5.12 0.945,-4.11 0.945,-2.912C0.945,-1.714 0.099,-0.704 -1.352,-0.704L-3.384,-0.704L-3.384,2.208L-4.296,2.208Z" style="fill:var(--grdc1); fill-rule:nonzero;"/>
  </g>
  <g transform="matrix(0.8084407351758252, 0, 0, 0.80844051415095, 254.61511940062698, 284.98183502476206)">
    <path d="M0,7.329L0,1.297L-2.494,7.329L-2.867,7.329L-5.351,1.297L-5.351,7.329L-6.262,7.329L-6.262,0L-4.955,0L-2.681,5.516L-0.395,0L0.912,0L0.912,7.329L0,7.329Z" style="fill:var(--grdc1); fill-rule:nonzero;"/>
  </g>
  <g transform="matrix(0.8084407351758252, 0, 0, 0.80844051415095, 257.1442025062796, 284.98183502476206)">
    <path d="M0,7.329L0,0L4.801,0L4.801,0.813L0.912,0.813L0.912,3.175L4.724,3.175L4.724,3.989L0.912,3.989L0.912,6.516L4.801,6.516L4.801,7.329L0,7.329Z" style="fill:var(--grdc1); fill-rule:nonzero;"/>
  </g>
  <g transform="matrix(0.8084407351758252, 0, 0, 0.80844051415095, 266.73446752459614, 284.98183502476206)">
    <path d="M0,7.329L-4.274,1.484L-4.274,7.329L-5.186,7.329L-5.186,0L-4.252,0L-0.034,5.725L-0.034,0L0.879,0L0.879,7.329L0,7.329Z" style="fill:var(--grdc1); fill-rule:nonzero;"/>
  </g>
  <g transform="matrix(0.8084407351758252, 0, 0, 0.80844051415095, 270.57733227533595, 284.98183502476206)">
    <path d="M0,7.329L0,0.813L-2.318,0.813L-2.318,0L3.241,0L3.241,0.813L0.912,0.813L0.912,7.329L0,7.329Z" style="fill:var(--grdc1); fill-rule:nonzero;"/>
  </g>
  <g transform="matrix(0.8084407351758252, 0, 0, 0.80844051415095, 199.78333753086955, 296.66203340131256)">
    <path d="M0,0.001C0,-2.251 1.659,-3.79 3.769,-3.79C5.065,-3.79 5.966,-3.163 6.548,-2.34L5.779,-1.911C5.362,-2.527 4.604,-2.977 3.769,-2.977C2.164,-2.977 0.945,-1.746 0.945,0.001C0.945,1.736 2.164,2.978 3.769,2.978C4.604,2.978 5.362,2.538 5.779,1.913L6.56,2.341C5.944,3.176 5.065,3.791 3.769,3.791C1.659,3.791 0,2.253 0,0.001" style="fill:var(--grdc1); fill-rule:nonzero;"/>
  </g>
  <g transform="matrix(0.8084407351758252, 0, 0, 0.80844051415095, 211.10234966429798, 296.66203340131256)">
    <path d="M0,0.001C0,-1.714 -1.055,-2.977 -2.692,-2.977C-4.34,-2.977 -5.383,-1.714 -5.383,0.001C-5.383,1.703 -4.34,2.978 -2.692,2.978C-1.055,2.978 0,1.703 0,0.001M-6.328,0.001C-6.328,-2.164 -4.867,-3.79 -2.692,-3.79C-0.527,-3.79 0.945,-2.164 0.945,0.001C0.945,2.165 -0.527,3.791 -2.692,3.791C-4.867,3.791 -6.328,2.165 -6.328,0.001" style="fill:var(--grdc1); fill-rule:nonzero;"/>
  </g>
  <g transform="matrix(0.8084407351758252, 0, 0, 0.80844051415095, 216.85455942925833, 297.83534050375954)">
    <path d="M0,-2.912C0,-3.736 -0.593,-4.307 -1.461,-4.307L-3.384,-4.307L-3.384,-1.505L-1.461,-1.505C-0.593,-1.505 0,-2.088 0,-2.912M-0.055,2.208L-1.922,-0.704L-3.384,-0.704L-3.384,2.208L-4.296,2.208L-4.296,-5.12L-1.352,-5.12C-0.011,-5.12 0.945,-4.263 0.945,-2.912C0.945,-1.593 0.044,-0.868 -0.956,-0.781L1.022,2.208L-0.055,2.208Z" style="fill:var(--grdc1); fill-rule:nonzero;"/>
  </g>
  <g transform="matrix(0.8084407351758252, 0, 0, 0.80844051415095, 222.59847344740885, 297.83534050375954)">
    <path d="M0,-2.912C0,-3.736 -0.593,-4.307 -1.461,-4.307L-3.384,-4.307L-3.384,-1.517L-1.461,-1.517C-0.593,-1.517 0,-2.088 0,-2.912M-4.296,2.208L-4.296,-5.12L-1.352,-5.12C0.121,-5.12 0.945,-4.109 0.945,-2.912C0.945,-1.714 0.099,-0.704 -1.352,-0.704L-3.384,-0.704L-3.384,2.208L-4.296,2.208Z" style="fill:var(--grdc1); fill-rule:nonzero;"/>
  </g>
  <g transform="matrix(0.8084407351758252, 0, 0, 0.80844051415095, 229.57478936126662, 296.66203340131256)">
    <path d="M0,0.001C0,-1.714 -1.055,-2.977 -2.692,-2.977C-4.339,-2.977 -5.383,-1.714 -5.383,0.001C-5.383,1.703 -4.339,2.978 -2.692,2.978C-1.055,2.978 0,1.703 0,0.001M-6.328,0.001C-6.328,-2.164 -4.868,-3.79 -2.692,-3.79C-0.527,-3.79 0.945,-2.164 0.945,0.001C0.945,2.165 -0.527,3.791 -2.692,3.791C-4.868,3.791 -6.328,2.165 -6.328,0.001" style="fill:var(--grdc1); fill-rule:nonzero;"/>
  </g>
  <g transform="matrix(0.8084407351758252, 0, 0, 0.80844051415095, 235.32717725575978, 297.83534050375954)">
    <path d="M0,-2.912C0,-3.736 -0.593,-4.307 -1.461,-4.307L-3.384,-4.307L-3.384,-1.505L-1.461,-1.505C-0.593,-1.505 0,-2.088 0,-2.912M-0.055,2.208L-1.922,-0.704L-3.384,-0.704L-3.384,2.208L-4.296,2.208L-4.296,-5.12L-1.352,-5.12C-0.011,-5.12 0.945,-4.263 0.945,-2.912C0.945,-1.593 0.044,-0.868 -0.956,-0.781L1.022,2.208L-0.055,2.208Z" style="fill:var(--grdc1); fill-rule:nonzero;"/>
  </g>
  <g transform="matrix(0.8084407351758252, 0, 0, 0.80844051415095, 240.00857405827205, 298.85604153253405)">
    <path d="M0,-5.438L-1.56,-1.494L1.549,-1.494L0,-5.438ZM2.472,0.945L1.824,-0.681L-1.824,-0.681L-2.472,0.945L-3.516,0.945L-0.572,-6.383L0.56,-6.383L3.516,0.945L2.472,0.945Z" style="fill:var(--grdc1); fill-rule:nonzero;"/>
  </g>
  <g transform="matrix(0.8084407351758252, 0, 0, 0.80844051415095, 244.7288285459949, 293.69605025692334)">
    <path d="M0,7.328L0,0.813L-2.318,0.813L-2.318,0L3.241,0L3.241,0.813L0.912,0.813L0.912,7.328L0,7.328Z" style="fill:var(--grdc1); fill-rule:nonzero;"/>
  </g>
  <g transform="matrix(0.8084407351758252, 0, 0, 0.80844051415095, -366.31748323079313, 261.90805179234366)">
    <rect x="760.626" y="39.319" width="0.912" height="7.328" style="fill:var(--grdc1); fill-rule:nonzero;"/>
  </g>
  <g transform="matrix(0.8084407351758252, 0, 0, 0.80844051415095, 255.9641197990418, 296.66203340131256)">
    <path d="M0,0.001C0,-1.714 -1.055,-2.977 -2.692,-2.977C-4.34,-2.977 -5.383,-1.714 -5.383,0.001C-5.383,1.703 -4.34,2.978 -2.692,2.978C-1.055,2.978 0,1.703 0,0.001M-6.328,0.001C-6.328,-2.164 -4.867,-3.79 -2.692,-3.79C-0.527,-3.79 0.945,-2.164 0.945,0.001C0.945,2.165 -0.527,3.791 -2.692,3.791C-4.867,3.791 -6.328,2.165 -6.328,0.001" style="fill:var(--grdc1); fill-rule:nonzero;"/>
  </g>
  <g transform="matrix(0.8084407351758252, 0, 0, 0.80844051415095, 262.4361255586744, 293.69605025692334)">
    <path d="M0,7.328L-4.274,1.483L-4.274,7.328L-5.186,7.328L-5.186,0L-4.253,0L-0.034,5.724L-0.034,0L0.879,0L0.879,7.328L0,7.328Z" style="fill:var(--grdc1); fill-rule:nonzero;"/>
  </g>
  <g transform="matrix(0.7937299892257625, -0.15352170842472132, -0.15352175039703203, -0.793729772222754, 196.81216237206553, 300.9267268049035)">
    <path d="M-4.584,-0.36C1.744,6.719 1.969,10.964 -0.827,21.836C-2.033,26.749 -3.38,30.419 -4.584,35.327C-5.408,39.192 -5.76,45.013 -6.388,48.352C-9.904,41.708 -9.67,10.268 -4.584,-0.36" style="fill-rule: nonzero; fill: rgb(0, 122, 69);"/>
  </g>
  <g transform="matrix(0.19067977469922007, -0.7856364114027491, -0.7856366261930606, -0.19067972256803523, 167.5558116579792, 269.52326536396623)">
    <path d="M-19.946,-21.039C-17.384,-11.627 -16.404,-5.962 -16.197,3.198C-16.268,7.556 -17.955,23.264 -19.946,27.019C-20.396,23.793 -20.672,18.997 -21.038,14.987C-23.532,1.218 -30.469,-11.842 -19.946,-21.039" style="fill-rule: nonzero; fill: rgb(0, 122, 69);"/>
  </g>
  <g transform="matrix(0.8084407351758252, 0, 0, 0.80844051415095, 180.29441437893442, 252.10631311827058)">
    <path d="M0,45.88C6.691,33.589 -0.638,26.354 -7.24,12C-9.495,7.476 -10.376,4.056 -12.327,0C-14.431,6.008 -7.901,35.693 0,45.88" style="fill-rule: nonzero; fill: rgb(0, 122, 69);"/>
  </g>
  <g transform="matrix(0.15250614118829345, -0.7939248995537497, -0.7939251166101055, -0.15250609949364677, 180.88147842464923, 280.5974545123235)">
    <path d="M-23.017,-19.965C-17.712,-10.625 -18.825,20.251 -22.502,28.179C-23.107,26.522 -22.841,24.166 -23.017,22.163C-24.211,11.694 -28.375,-0.698 -28.274,-8.635C-28.083,-13.784 -26.776,-14.824 -23.017,-19.965" style="fill-rule: nonzero; fill: rgb(0, 122, 69);"/>
  </g>
  <g transform="matrix(0.8084407351758252, 0, 0, 0.80844051415095, 168.62881306897216, 271.35256610017774)">
    <path d="M0,7.958C-2.27,6.912 -4.802,4.648 -9.34,2.565C-11.959,1.082 -15.801,-0.128 -18.855,-1.255C-23.829,-2.997 -34.646,-5.77 -38.658,-5.415C-36.828,-4.02 -31.503,-1.847 -29.231,-0.807C-20.594,3.718 -8.975,13.728 0,7.958" style="fill-rule: nonzero; fill: rgb(0, 122, 69);"/>
  </g>
  <g transform="matrix(0.8084407351758252, 0, 0, 0.80844051415095, 168.64341969065575, 246.81871115265676)">
    <path d="M0,38.308C-1.103,36.065 -3.431,33.591 -5.627,29.106C-7.176,26.527 -8.481,22.716 -9.686,19.691C-11.552,14.763 -14.596,4.019 -14.342,0C-12.901,1.794 -10.596,7.061 -9.498,9.307C-4.757,17.827 5.542,29.191 0,38.308" style="fill-rule: nonzero; fill: rgb(0, 122, 69);"/>
  </g>
  <g transform="matrix(0.8084407351758252, 0, 0, 0.80844051415095, 146.4605927211437, 257.55269048138325)">
    <path d="M0,-2.755C-0.535,-5.87 -2.895,-10.271 -2.976,-13.059C2.179,-8.74 12.184,5.165 12.668,10.292L12.648,10.304C7.538,9.663 -6.056,-0.761 -10.215,-6.045C-7.431,-5.88 -3.105,-3.387 -0.007,-2.757L0,-2.755Z" style="fill-rule: nonzero; fill: rgb(0, 122, 69);"/>
  </g>
  <g transform="matrix(0.8084407351758252, 0, 0, 0.80844051415095, 199.33104120020053, 255.88699213359928)">
    <path d="M0,-0.033C0,-6.983 5.27,-11.397 11.694,-11.397C16.272,-11.397 19.138,-9.091 20.785,-6.489L16.898,-4.381C15.91,-5.929 14.032,-7.247 11.694,-7.247C7.708,-7.247 4.809,-4.184 4.809,-0.033C4.809,4.118 7.708,7.181 11.694,7.181C13.637,7.181 15.482,6.324 16.371,5.501L16.371,2.865L10.573,2.865L10.573,-1.219L21.049,-1.219L21.049,7.214C18.809,9.717 15.679,11.364 11.694,11.364C5.27,11.364 0,6.884 0,-0.033" style="fill:var(--grdc1); fill-rule:nonzero;"/>
  </g>
  <g transform="matrix(0.8084407351758252, 0, 0, 0.80844051415095, 233.762716463974, 259.0029189520514)">
    <path d="M0,-7.807C0,-9.652 -1.416,-10.771 -3.294,-10.771L-8.202,-10.771L-8.202,-4.843L-3.294,-4.843C-1.416,-4.843 0,-5.962 0,-7.807M-0.461,7.082L-4.776,-0.725L-8.202,-0.725L-8.202,7.082L-12.879,7.082L-12.879,-14.889L-2.602,-14.889C1.976,-14.889 4.777,-11.892 4.777,-7.807C4.777,-3.92 2.339,-1.845 -0.032,-1.285L4.908,7.082L-0.461,7.082Z" style="fill:var(--grdc1); fill-rule:nonzero;"/>
  </g>
  <g transform="matrix(0.8084407351758252, 0, 0, 0.80844051415095, 257.1708710420365, 255.8336216773896)">
    <path d="M0,0.033C0,-3.854 -2.372,-6.851 -6.884,-6.851L-10.87,-6.851L-10.87,6.884L-6.884,6.884C-2.536,6.884 0,3.755 0,0.033M-15.548,11.002L-15.548,-10.969L-6.884,-10.969C0,-10.969 4.776,-6.588 4.776,0.033C4.776,6.654 0,11.002 -6.884,11.002L-15.548,11.002Z" style="fill:var(--grdc1); fill-rule:nonzero;"/>
  </g>
  <g transform="matrix(0.8084407351758252, 0, 0, 0.80844051415095, 265.79821870058504, 255.86030611027354)">
    <path d="M0,0C0,-6.752 5.106,-11.364 11.694,-11.364C16.536,-11.364 19.336,-8.729 20.884,-5.995L16.865,-4.019C15.943,-5.798 13.967,-7.214 11.694,-7.214C7.708,-7.214 4.81,-4.151 4.81,0C4.81,4.151 7.708,7.214 11.694,7.214C13.967,7.214 15.943,5.83 16.865,4.019L20.884,5.962C19.303,8.696 16.536,11.364 11.694,11.364C5.106,11.364 0,6.752 0,0" style="fill:var(--grdc1); fill-rule:nonzero;"/>
  </g>
  <g transform="matrix(-0.8084407351758252, 0, 0, 0.80844051415095, 848.3298602434081, 210.36430867005328)">
    <rect x="699.677" y="74.402" width="103.101" height="0.919" style="fill:var(--grdc1); fill-rule:nonzero;"/>
  </g>
  <g transform="matrix(-0.8084407351758252, 0, 0, 0.80844051415095, 848.3298602434081, 277.79321930119784)">
    <rect x="699.677" y="32.699" width="103.101" height="0.919" style="fill:var(--grdc1); fill-rule:nonzero;"/>
  </g>
</svg>